<svg width="24" height="24" viewBox="0 0 24 24" fill="none" xmlns="http://www.w3.org/2000/svg">
<g clip-path="url(#clip0_45_1398)">
<path d="M12.9999 5.99957C12.9999 6.55182 12.5522 6.99951 11.9999 6.99951C11.4477 6.99951 11 6.55182 11 5.99957C11 5.44733 11.4477 4.99963 11.9999 4.99963C12.5522 4.99963 12.9999 5.44733 12.9999 5.99957Z" fill="black"/>
<path d="M11.9999 18.9999C11.5859 18.9999 11.2499 18.6639 11.2499 18.2499V10.5H10.25C9.836 10.5 9.5 10.164 9.5 9.75C9.5 9.336 9.836 9 10.25 9H11.9999C12.4139 9 12.7499 9.336 12.7499 9.75V18.2499C12.7499 18.6639 12.4139 18.9999 11.9999 18.9999Z" fill="black"/>
<path d="M12 24C5.38293 24 0 18.6171 0 12C0 5.38293 5.38293 0 12 0C18.6171 0 24 5.38293 24 12C24 18.6171 18.6171 24 12 24ZM12 1.5C6.21002 1.5 1.5 6.21002 1.5 12C1.5 17.79 6.21002 22.5 12 22.5C17.79 22.5 22.5 17.79 22.5 12C22.5 6.21002 17.79 1.5 12 1.5Z" fill="black"/>
<path d="M14.25 19.0005H9.75C9.336 19.0005 9 18.6645 9 18.2505C9 17.8365 9.336 17.5005 9.75 17.5005H14.25C14.664 17.5005 15 17.8365 15 18.2505C15 18.6645 14.664 19.0005 14.25 19.0005Z" fill="black"/>
</g>
<defs>
<clipPath id="clip0_45_1398">
<rect width="24" height="24" fill="white"/>
</clipPath>
</defs>
</svg>
