<svg width="24" height="19" viewBox="0 0 24 19" fill="none" xmlns="http://www.w3.org/2000/svg">
<path d="M8.4 11.875C5.592 11.875 0 13.4629 0 16.625V19H16.8V16.625C16.8 13.4629 11.208 11.875 8.4 11.875ZM2.808 16.2857C3.816 15.4986 6.252 14.5893 8.4 14.5893C10.548 14.5893 12.984 15.4986 13.992 16.2857H2.808ZM8.4 9.5C10.716 9.5 12.6 7.36929 12.6 4.75C12.6 2.13071 10.716 0 8.4 0C6.084 0 4.2 2.13071 4.2 4.75C4.2 7.36929 6.084 9.5 8.4 9.5ZM8.4 2.71429C9.396 2.71429 10.2 3.62357 10.2 4.75C10.2 5.87643 9.396 6.78571 8.4 6.78571C7.404 6.78571 6.6 5.87643 6.6 4.75C6.6 3.62357 7.404 2.71429 8.4 2.71429ZM16.848 11.9564C18.24 13.0964 19.2 14.6164 19.2 16.625V19H24V16.625C24 13.8836 19.8 12.3229 16.848 11.9564ZM15.6 9.5C17.916 9.5 19.8 7.36929 19.8 4.75C19.8 2.13071 17.916 0 15.6 0C14.952 0 14.352 0.176428 13.8 0.475C14.556 1.68286 15 3.16214 15 4.75C15 6.33786 14.556 7.81714 13.8 9.025C14.352 9.32357 14.952 9.5 15.6 9.5Z" fill="black"/>
</svg>
