<svg width="18" height="18" viewBox="0 0 18 18" fill="none" xmlns="http://www.w3.org/2000/svg">
<path d="M8.16669 4.83335H9.83335V6.50002H8.16669V4.83335ZM8.16669 8.16669H9.83335V13.1667H8.16669V8.16669ZM9.00002 0.666687C4.40002 0.666687 0.666687 4.40002 0.666687 9.00002C0.666687 13.6 4.40002 17.3334 9.00002 17.3334C13.6 17.3334 17.3334 13.6 17.3334 9.00002C17.3334 4.40002 13.6 0.666687 9.00002 0.666687ZM9.00002 15.6667C5.32502 15.6667 2.33335 12.675 2.33335 9.00002C2.33335 5.32502 5.32502 2.33335 9.00002 2.33335C12.675 2.33335 15.6667 5.32502 15.6667 9.00002C15.6667 12.675 12.675 15.6667 9.00002 15.6667Z" fill="white"/>
</svg>
