<svg width="23" height="23" viewBox="0 0 23 23" fill="none" xmlns="http://www.w3.org/2000/svg">
<path d="M8.32199 22.7536C4.8989 22.7339 2.06738 15.7462 2.06738 12.1875C2.06738 6.37445 6.42817 5.10181 8.10879 5.10181C8.86617 5.10181 9.6749 5.39924 10.3882 5.66244C10.887 5.84603 11.4029 6.03556 11.6898 6.03556C11.8616 6.03556 12.2663 5.87434 12.6236 5.73288C13.3856 5.42952 14.3338 5.05249 15.438 5.05249C15.44 5.05249 15.4426 5.05249 15.4445 5.05249C16.269 5.05249 18.7689 5.23344 20.2719 7.49049L20.6239 8.01953L20.1173 8.40186C19.3934 8.94802 18.0727 9.9443 18.0727 11.9178C18.0727 14.2551 19.5685 15.154 20.287 15.5863C20.6042 15.7771 20.9326 15.9739 20.9326 16.4042C20.9326 16.6852 18.69 22.7187 15.4333 22.7187C14.6365 22.7187 14.0732 22.4792 13.5764 22.268C13.0736 22.0541 12.64 21.8699 11.9234 21.8699C11.5601 21.8699 11.1008 22.0416 10.6145 22.2239C9.95 22.4719 9.19783 22.7536 8.34436 22.7536H8.32199Z" fill="white"/>
<path d="M15.7828 0C15.8676 3.0581 13.6806 5.17967 11.4961 5.04661C11.1361 2.60614 13.6803 0 15.7828 0Z" fill="white"/>
</svg>
