<svg width="24" height="24" viewBox="0 0 24 24" fill="none" xmlns="http://www.w3.org/2000/svg">
<g clip-path="url(#clip0_45_1359)">
<path d="M11.8913 3.34314C7.54491 3.34314 4.00903 6.87901 4.00903 11.2254V19.5968H5.63981V11.2254C5.63981 7.7784 8.44397 4.97392 11.8913 4.97392C15.3385 4.97392 18.1427 7.77836 18.1427 11.2254V19.5968H19.7735V11.2254C19.7735 6.87901 16.2376 3.34314 11.8913 3.34314Z" fill="black"/>
<path d="M20.6977 18.7815H3.30245C2.85208 18.7815 2.48706 19.1465 2.48706 19.5969C2.48706 20.0473 2.85208 20.4123 3.30245 20.4123H20.6977C21.1481 20.4123 21.5131 20.0473 21.5131 19.5969C21.5131 19.1465 21.148 18.7815 20.6977 18.7815Z" fill="black"/>
<path d="M11.8914 0C10.5126 0 9.39087 1.12172 9.39087 2.50055C9.39087 3.87938 10.5126 5.00109 11.8914 5.00109C13.2702 5.00109 14.392 3.87938 14.392 2.50055C14.392 1.12172 13.2702 0 11.8914 0ZM11.8914 3.37031C11.4199 3.37031 11.0217 2.97188 11.0217 2.50055C11.0217 2.02898 11.4199 1.63078 11.8914 1.63078C12.363 1.63078 12.7612 2.02898 12.7612 2.50055C12.7612 2.97211 12.363 3.37031 11.8914 3.37031Z" fill="black"/>
<path d="M13.3045 19.5969V21.0103C13.3045 21.7597 12.6949 22.3693 11.9455 22.3693C11.1962 22.3693 10.5865 21.7597 10.5865 21.0103V19.5969H8.95569V21.0103C8.95569 22.6588 10.297 24.0002 11.9455 24.0002C13.594 24.0002 14.9353 22.6588 14.9353 21.0103V19.5969H13.3045Z" fill="black"/>
</g>
<defs>
<clipPath id="clip0_45_1359">
<rect width="24" height="24" fill="white"/>
</clipPath>
</defs>
</svg>
