<svg width="28" height="28" viewBox="0 0 28 28" fill="none" xmlns="http://www.w3.org/2000/svg">
<g clip-path="url(#clip0_199_63)">
<path d="M11.5388 8.47644C5.20636 8.47644 -3.44404e-06 12.831 -3.44404e-06 18.1838C-3.44404e-06 20.3234 0.829934 22.498 2.35194 24.1834L0.202668 26.6395C-0.00880813 26.8814 -0.060105 27.2251 0.0737153 27.5182C0.206715 27.8114 0.498309 27.9997 0.820309 27.9997H12.3591C17.0346 27.9997 23.0776 23.9736 23.0776 18.1838C23.0776 12.831 17.8712 8.47644 11.5388 8.47644ZM6.56233 19.6874C5.65791 19.6874 4.92176 18.9512 4.92176 18.0468C4.92176 17.1424 5.65797 16.4062 6.56233 16.4062C7.4667 16.4062 8.2029 17.1424 8.2029 18.0468C8.20296 18.9512 7.46675 19.6874 6.56233 19.6874ZM11.5388 19.6874C10.6344 19.6874 9.89821 18.9512 9.89821 18.0468C9.89821 17.1424 10.6344 16.4062 11.5388 16.4062C12.4432 16.4062 13.1794 17.1424 13.1794 18.0468C13.1794 18.9512 12.4432 19.6874 11.5388 19.6874ZM16.5152 19.6874C15.6108 19.6874 14.8747 18.9512 14.8747 18.0468C14.8747 17.1424 15.6109 16.4062 16.5152 16.4062C17.4196 16.4062 18.1558 17.1424 18.1558 18.0468C18.1558 18.9512 17.4197 19.6874 16.5152 19.6874Z" fill="white"/>
<path d="M27.8015 16.6921L25.8702 14.4387C27.2488 12.883 27.9994 10.986 27.9994 9.02346C27.9994 4.04805 23.2154 0.000244141 17.3356 0.000244141C12.0186 0.000244141 7.50135 3.3137 6.70374 7.62642C8.1873 7.12231 9.85106 6.83574 11.5389 6.83574C18.7222 6.83574 24.624 11.853 24.7103 18.0467H27.1791C27.8798 18.0467 28.2561 17.2216 27.8015 16.6921Z" fill="white"/>
</g>
<defs>
<clipPath id="clip0_199_63">
<rect width="28" height="28" fill="white"/>
</clipPath>
</defs>
</svg>
