<svg width="21" height="22" viewBox="0 0 21 22" fill="none" xmlns="http://www.w3.org/2000/svg">
<path d="M20.9471 18.8513C20.8548 18.3867 20.4205 18.0885 19.9768 18.1852C19.5333 18.2819 19.2486 18.737 19.341 19.2017C19.3941 19.4693 19.3308 19.7436 19.1672 19.9544C19.0725 20.0765 18.8612 20.2812 18.511 20.2812H2.48971C2.13952 20.2812 1.92825 20.0765 1.8335 19.9544C1.66989 19.7437 1.60656 19.4693 1.65976 19.2017C2.51108 14.9179 6.11779 11.7886 10.2829 11.6831C10.355 11.686 10.4275 11.6875 10.5004 11.6875C10.5734 11.6875 10.6462 11.686 10.7186 11.6831C13.6526 11.7568 16.3644 13.3136 18.0066 15.8794C18.2589 16.2736 18.7684 16.3789 19.1448 16.1146C19.5211 15.8503 19.6216 15.3165 19.3693 14.9223C18.0232 12.8192 16.0687 11.29 13.8402 10.5215C15.1982 9.45467 16.0785 7.75487 16.0785 5.84375C16.0785 2.62152 13.5762 0 10.5004 0C7.42455 0 4.92223 2.62152 4.92223 5.84375C4.92223 7.75603 5.80357 9.45673 7.16304 10.5235C5.91747 10.9531 4.74873 11.6216 3.7258 12.503C1.85007 14.1194 0.5459 16.3739 0.0535887 18.8513C-0.100712 19.6277 0.0841454 20.425 0.560665 21.0388C1.03485 21.6497 1.73798 22 2.48971 22H18.511C19.2627 22 19.9659 21.6497 20.44 21.0388C20.9166 20.425 21.1014 19.6277 20.9471 18.8513ZM6.56285 5.84375C6.56285 3.5692 8.32919 1.71875 10.5004 1.71875C12.6715 1.71875 14.4379 3.5692 14.4379 5.84375C14.4379 8.04826 12.7786 9.85441 10.6997 9.96351C10.6333 9.96222 10.5669 9.96157 10.5004 9.96157C10.4342 9.96157 10.368 9.96226 10.3018 9.96355C8.22255 9.85488 6.56285 8.04856 6.56285 5.84375Z" fill="black"/>
</svg>
