<svg width="24" height="24" viewBox="0 0 24 24" fill="none" xmlns="http://www.w3.org/2000/svg">
<g clip-path="url(#clip0_45_1387)">
<path d="M8.31006 4.62354H4.11365C3.72528 4.62354 3.41052 4.93829 3.41052 5.32666C3.41052 5.71503 3.72528 6.02979 4.11365 6.02979H8.31006C8.69824 6.02979 9.01318 5.71503 9.01318 5.32666C9.01318 4.93829 8.69824 4.62354 8.31006 4.62354Z" fill="black"/>
<path d="M8.31006 7.43628H4.11365C3.72528 7.43628 3.41052 7.75104 3.41052 8.1394C3.41052 8.52777 3.72528 8.84253 4.11365 8.84253H8.31006C8.69824 8.84253 9.01318 8.52777 9.01318 8.1394C9.01318 7.75104 8.69824 7.43628 8.31006 7.43628Z" fill="black"/>
<path d="M8.31006 10.249H4.11365C3.72528 10.249 3.41052 10.5638 3.41052 10.9521C3.41052 11.3405 3.72528 11.6553 4.11365 11.6553H8.31006C8.69824 11.6553 9.01318 11.3405 9.01318 10.9521C9.01318 10.5638 8.69824 10.249 8.31006 10.249Z" fill="black"/>
<path d="M8.31006 13.0616H4.11365C3.72528 13.0616 3.41052 13.3764 3.41052 13.7648C3.41052 14.1531 3.72528 14.4679 4.11365 14.4679H8.31006C8.69824 14.4679 9.01318 14.1531 9.01318 13.7648C9.01318 13.3764 8.69824 13.0616 8.31006 13.0616Z" fill="black"/>
<path d="M8.31006 15.9214H4.11365C3.72528 15.9214 3.41052 16.2363 3.41052 16.6245C3.41052 17.0129 3.72528 17.3276 4.11365 17.3276H8.31006C8.69824 17.3276 9.01318 17.0129 9.01318 16.6245C9.01318 16.2363 8.69824 15.9214 8.31006 15.9214Z" fill="black"/>
<path d="M10.6714 6.02979H14.8678C15.2562 6.02979 15.5709 5.71503 15.5709 5.32666C15.5709 4.93829 15.2562 4.62354 14.8678 4.62354H10.6714C10.2832 4.62354 9.96826 4.93829 9.96826 5.32666C9.96826 5.71503 10.2832 6.02979 10.6714 6.02979Z" fill="black"/>
<path d="M10.6714 8.84253H14.8678C15.2562 8.84253 15.5709 8.52777 15.5709 8.1394C15.5709 7.75104 15.2562 7.43628 14.8678 7.43628H10.6714C10.2832 7.43628 9.96826 7.75104 9.96826 8.1394C9.96826 8.52777 10.2832 8.84253 10.6714 8.84253Z" fill="black"/>
<path d="M13.3956 10.9521C13.3956 10.5638 13.0809 10.249 12.6925 10.249H10.6714C10.2832 10.249 9.96826 10.5638 9.96826 10.9521C9.96826 11.3405 10.2832 11.6553 10.6714 11.6553H12.6925C13.0809 11.6553 13.3956 11.3405 13.3956 10.9521Z" fill="black"/>
<path d="M20.0564 16.2181C19.7536 15.9751 19.3112 16.0236 19.068 16.3265L17.2571 18.5841L16.136 17.7719C15.8216 17.5439 15.3818 17.6142 15.154 17.9286C14.9262 18.2432 14.9965 18.6828 15.3109 18.9106L16.974 20.1156C17.0986 20.2057 17.2428 20.2495 17.3862 20.2495C17.5926 20.2495 17.7966 20.1589 17.935 19.9862L20.165 17.2065C20.408 16.9036 20.3595 16.461 20.0564 16.2181Z" fill="black"/>
<path d="M21.8337 14.0598C20.9178 13.1277 19.741 12.5403 18.4658 12.3673V2.83173C18.4658 1.27039 17.1954 0 15.6341 0H3.34753C1.78601 0 0.515625 1.27039 0.515625 2.83173V19.1195C0.515625 20.681 1.78601 21.9514 3.34735 21.9514H13.2294C14.3414 23.2577 15.9402 24 17.67 24C20.89 24 23.5095 21.3787 23.5095 18.1566C23.5095 16.6141 22.9144 15.1591 21.8337 14.0598ZM1.92188 19.1195V2.83173C1.92188 2.04584 2.56146 1.40625 3.34753 1.40625H15.6341C16.4202 1.40625 17.0596 2.04584 17.0596 2.83173V12.345C14.1255 12.6513 11.8306 15.1406 11.8306 18.1566C11.8306 18.9924 12.0049 19.8007 12.3393 20.545H3.34753C2.56146 20.545 1.92188 19.9056 1.92188 19.1195ZM17.67 22.5938C16.2658 22.5938 14.9749 21.949 14.1281 20.8251C13.545 20.0511 13.2367 19.1285 13.2367 18.1566C13.2367 15.7099 15.2256 13.7194 17.67 13.7194C17.6931 13.7194 17.7164 13.7197 17.7394 13.7201L17.7502 13.7203C18.9172 13.741 20.0112 14.2115 20.8308 15.0454C21.6513 15.8802 22.1032 16.9852 22.1032 18.1566C22.1032 20.6032 20.1145 22.5938 17.67 22.5938Z" fill="black"/>
</g>
<defs>
<clipPath id="clip0_45_1387">
<rect width="24" height="24" fill="white"/>
</clipPath>
</defs>
</svg>
