<svg width="25" height="25" viewBox="0 0 25 25" fill="none" xmlns="http://www.w3.org/2000/svg">
<path d="M24.0738 7.77974C22.2125 3.23686 17.7059 0 12.5 0C7.29277 0 2.78701 3.23799 0.926221 7.77969C0.36626 8.17832 0 8.83213 0 9.57031V15.4297C0 16.1679 0.36626 16.8217 0.926221 17.2203C2.78745 21.763 7.29399 25 12.5 25C17.7072 25 22.2129 21.762 24.0738 17.2203C24.6337 16.8216 25 16.1678 25 15.4297V9.57031C25 8.83218 24.6337 8.17837 24.0738 7.77974ZM22.2678 7.37305H18.5233C18.0579 5.37866 17.3313 3.66152 16.4069 2.37998C16.3423 2.29048 16.277 2.20366 16.2109 2.11899C18.7797 3.04883 20.968 4.91636 22.2678 7.37305ZM13.2324 1.5875C15.2366 2.2604 16.4898 5.29443 17.0159 7.37305H13.2324V1.5875ZM11.7676 1.5875V7.37305H7.98403C8.40474 5.71099 9.01909 4.29331 9.7811 3.23691C10.2389 2.60225 10.9199 1.87212 11.7676 1.5875ZM8.78911 2.11899C8.72305 2.20366 8.65767 2.29043 8.59307 2.37998C7.6687 3.66152 6.94209 5.37866 6.47666 7.37305H2.73218C4.03198 4.91636 6.22026 3.04883 8.78911 2.11899ZM2.73218 17.627H6.47666C6.90293 19.4534 7.63521 21.4021 8.78911 22.881C6.22026 21.9512 4.03198 20.0836 2.73218 17.627ZM11.7676 23.4125C9.76343 22.7396 8.51016 19.7056 7.98403 17.627H11.7676V23.4125ZM13.2324 23.4125V17.6172H17.016C16.489 19.6989 15.2323 22.741 13.2324 23.4125ZM16.2109 22.881C17.3646 21.4023 18.097 19.444 18.5233 17.6172H22.2678C20.968 20.0739 18.7797 21.9512 16.2109 22.881ZM23.5352 15.4297C23.5352 15.8335 23.2066 16.1621 22.8027 16.1621C22.338 16.1621 2.72852 16.1621 2.19727 16.1621C1.79341 16.1621 1.46484 15.8335 1.46484 15.4297V9.57031C1.46484 9.16646 1.79341 8.83789 2.19727 8.83789C2.75562 8.83789 22.3014 8.83789 22.8027 8.83789C23.2066 8.83789 23.5352 9.16646 23.5352 9.57031V15.4297Z" fill="#66AF5F"/>
</svg>
